<?xml version="1.0" standalone="no"?>
<!DOCTYPE svg PUBLIC "-//W3C//DTD SVG 20010904//EN"
 "http://www.w3.org/TR/2001/REC-SVG-20010904/DTD/svg10.dtd">
<svg version="1.0" xmlns="http://www.w3.org/2000/svg"
 width="6001.000000pt" height="6000.000000pt" viewBox="0 0 6001.000000 6000.000000"
 preserveAspectRatio="xMidYMid meet">

<g transform="translate(0.000000,6000.000000) scale(0.100000,-0.100000)"
fill="#000000" stroke="none">
<path d="M5373 33523 l-23 -4 0 -2819 c0 -1937 3 -2821 10 -2825 26 -16 197
-17 269 -1 180 38 341 159 421 316 56 110 63 143 69 360 6 198 7 207 34 262
30 62 74 105 140 140 32 17 59 22 118 23 64 0 84 -4 134 -30 64 -33 123 -99
145 -163 7 -22 15 -123 19 -242 7 -198 9 -208 39 -285 40 -100 117 -204 200
-267 35 -26 67 -48 73 -48 5 0 9 948 9 2521 l0 2520 -32 -18 c-54 -31 -161
-138 -197 -197 -18 -31 -45 -87 -60 -124 l-26 -67 -5 -1335 -5 -1335 -26 -56
c-53 -113 -146 -174 -264 -174 -120 0 -218 64 -269 174 l-21 46 -5 1575 -5
1575 -27 73 c-72 197 -235 347 -433 397 -55 14 -226 19 -282 8z"/>
<path d="M3525 32562 c-190 -57 -339 -196 -414 -390 l-26 -67 -5 -750 -5 -750
-28 -57 c-53 -107 -151 -171 -267 -171 -79 -1 -140 24 -203 82 -78 72 -90 115
-98 341 -5 159 -10 205 -26 250 -63 172 -165 290 -318 366 -334 165 -741 -5
-863 -361 l-27 -80 -3 -1045 c-3 -1166 -5 -1134 65 -1280 49 -102 167 -221
270 -273 306 -151 678 -35 830 259 66 127 66 127 72 499 l6 340 28 57 c110
224 424 224 534 0 l28 -57 5 -1210 5 -1210 22 -58 c72 -188 205 -321 385 -384
97 -34 253 -43 348 -19 212 53 382 211 452 421 l23 70 5 1495 5 1495 23 42
c48 91 127 145 230 159 l52 7 0 328 0 329 -28 0 c-99 0 -204 67 -251 161 l-31
62 0 416 c0 425 -5 499 -40 599 -59 166 -206 313 -373 372 -87 32 -295 38
-382 12z"/>
</g>
</svg>
